<svg viewBox="0 0 200 200" xmlns="http://www.w3.org/2000/svg">
  <!-- Background circle -->
  <circle cx="100" cy="100" r="95" fill="#E8F4F8" stroke="#0D6EFD" stroke-width="2"/>
  
  <!-- Brain icon (stylized) -->
  <g transform="translate(100, 100)">
    <!-- Left hemisphere -->
    <path d="M -35 -20 Q -45 -10 -45 5 Q -45 20 -35 28 Q -25 35 -10 35 L -10 -30 Q -25 -30 -35 -20" fill="#0D6EFD" opacity="0.8"/>
    
    <!-- Right hemisphere -->
    <path d="M 35 -20 Q 45 -10 45 5 Q 45 20 35 28 Q 25 35 10 35 L 10 -30 Q 25 -30 35 -20" fill="#0D6EFD" opacity="0.8"/>
    
    <!-- Center connection -->
    <ellipse cx="0" cy="8" rx="8" ry="12" fill="#0D6EFD"/>
    
    <!-- Highlight dots for wellness -->
    <circle cx="-20" cy="-10" r="3" fill="#28A745" opacity="0.9"/>
    <circle cx="20" cy="-10" r="3" fill="#28A745" opacity="0.9"/>
    <circle cx="-15" cy="15" r="2.5" fill="#FFC107" opacity="0.8"/>
    <circle cx="15" cy="15" r="2.5" fill="#FFC107" opacity="0.8"/>
  </g>
</svg>
